HIERARCHY
ROOT root
{
	OFFSET	0	13.1	24.9
	CHANNELS 6  Xposition Yposition Zposition Xrotation Yrotation Zrotation
	JOINT spine_1
	{
		OFFSET	0	9.99999	0
		CHANNELS 3  Xrotation Yrotation Zrotation
		JOINT spine_2
		{
			OFFSET	0	112	-10
			CHANNELS 3  Xrotation Yrotation Zrotation
			JOINT spine_3
			{
				OFFSET	0	206.5	19.3
				CHANNELS 3  Xrotation Yrotation Zrotation
				JOINT spine_4
				{
					OFFSET	0	110.4	14.6
					CHANNELS 3  Xrotation Yrotation Zrotation
					JOINT neck_1
					{
						OFFSET	0	71.8	-50.3
						CHANNELS 3  Xrotation Yrotation Zrotation
						JOINT neck_2
						{
							OFFSET	0	86.2	-25.8
							CHANNELS 3  Xrotation Yrotation Zrotation
							JOINT head_ee
							{
								OFFSET	0	179.8	-8.7
								CHANNELS 3  Xrotation Yrotation Zrotation
								End Site
								{
									OFFSET	1	0	0
								}
							}
						}
					}
					JOINT left_clavicle
					{
						OFFSET	-43.2	22.4	-70.8
						CHANNELS 3  Xrotation Yrotation Zrotation
						JOINT left_shoulder
						{
							OFFSET	-93.9	-5.79999	48.7
							CHANNELS 3  Xrotation Yrotation Zrotation
							JOINT left_elbow
							{
								OFFSET	-291.4	-30.8	15.2
								CHANNELS 3  Xrotation Yrotation Zrotation
								JOINT left_lowarm_twist
								{
									OFFSET	-110.7	-3.89999	13.6
									CHANNELS 3  Xrotation Yrotation Zrotation
									JOINT left_hand
									{
										OFFSET	-110.7	-3.89999	13.6
										CHANNELS 3  Xrotation Yrotation Zrotation
										JOINT left_ee
										{
											OFFSET	-80.8	-5.10001	12.1
											CHANNELS 3  Xrotation Yrotation Zrotation
											End Site
											{
												OFFSET	1	0	0
											}
										}
									}
								}
							}
						}
					}
					JOINT right_clavicle
					{
						OFFSET	43.2	22.4	-70.8
						CHANNELS 3  Xrotation Yrotation Zrotation
						JOINT right_shoulder
						{
							OFFSET	93.9	-5.79999	48.7
							CHANNELS 3  Xrotation Yrotation Zrotation
							JOINT right_elbow
							{
								OFFSET	291.4	-30.8	15.2
								CHANNELS 3  Xrotation Yrotation Zrotation
								JOINT right_lowarm_twist
								{
									OFFSET	110.7	-3.89999	13.6
									CHANNELS 3  Xrotation Yrotation Zrotation
									JOINT right_hand
									{
										OFFSET	110.7	-3.89999	13.6
										CHANNELS 3  Xrotation Yrotation Zrotation
										JOINT right_ee
										{
											OFFSET	80.8	-5.10001	12.1
											CHANNELS 3  Xrotation Yrotation Zrotation
											End Site
											{
												OFFSET	1	0	0
											}
										}
									}
								}
							}
						}
					}
				}
			}
		}
	}
	JOINT left_hip
	{
		OFFSET	-82.8	-127.5	0.300001
		CHANNELS 3  Xrotation Yrotation Zrotation
		JOINT left_knee
		{
			OFFSET	-28.2	-396.7	2.2
			CHANNELS 3  Xrotation Yrotation Zrotation
			JOINT left_ankle
			{
				OFFSET	-11.7	-411.3	35.4
				CHANNELS 3  Xrotation Yrotation Zrotation
				JOINT left_toes
				{
					OFFSET	0	-60	-88.6
					CHANNELS 3  Xrotation Yrotation Zrotation
					JOINT left_foot_ee
					{
						OFFSET	-22.5	-16.5	-42.2
						CHANNELS 3  Xrotation Yrotation Zrotation
						End Site
						{
							OFFSET	1	0	0
						}
					}
				}
			}
		}
	}
	JOINT right_hip
	{
		OFFSET	82.8	-127.5	0.300001
		CHANNELS 3  Xrotation Yrotation Zrotation
		JOINT right_knee
		{
			OFFSET	28.2	-396.7	2.2
			CHANNELS 3  Xrotation Yrotation Zrotation
			JOINT right_ankle
			{
				OFFSET	11.7	-411.3	35.4
				CHANNELS 3  Xrotation Yrotation Zrotation
				JOINT right_toes
				{
					OFFSET	0	-60	-88.6
					CHANNELS 3  Xrotation Yrotation Zrotation
					JOINT right_foot_ee
					{
						OFFSET	22.5	-16.5	-42.2
						CHANNELS 3  Xrotation Yrotation Zrotation
						End Site
						{
							OFFSET	1	0	0
						}
					}
				}
			}
		}
	}
}
MOTION
Frames: 13
Frame Time: 0.02
2924.59902138 692.158 -1926.93383178 -20.3925616736 31.77546099 11.1296914878 6.8888 0.207898 0.130426 6.88879 0.199177 0.14339 6.8893 0.185241 0.160992 6.88933 0.208341 0.129716 -9.8421 3.95829 -1.81324 -9.85291 8.67525 -0.794039 -0.0 0.0 -0.0 7.6241 -11.3559 14.6603 -14.9738 -2.7815 58.5812 2.26282 -48.2568 1.01366 -12.914 -0.629611 1.52294 2.55169 -28.8015 4.07655 -0.0 0.0 -0.0 6.06331 3.3229 -11.6721 -30.5439 24.1331 -66.2546 0.432741 12.0994 -0.0458629 -5.60835 0.231041 -0.678388 5.3017 27.8544 -22.4962 0.0 0.0 0.0 26.7991 12.716 0.676081 -15.044 0.321739 2.27964 34.4866 -1.3906 -4.38094 36.8483 -0.0 -0.0 -0.0 0.0 -0.0 55.9667 3.65479 -3.27909 -69.149 3.26454 -9.45122 4.95652 -28.599 0.763861 1.11516 -0.0 -0.0 0.0 0.0 0.0 
2889.98755094 695.181 -1927.22045843 -20.501713835 35.306842794 11.9015321883 6.80075 0.253695 0.176337 6.80073 0.24196 0.192123 6.80155 0.223065 0.213772 6.80158 0.254026 0.17586 -11.61 4.11774 -1.37625 -11.6406 8.69128 -0.19246 -0.0 0.0 -0.0 7.55685 -11.6893 14.5024 -13.9825 -3.26387 58.7225 2.55317 -51.6595 1.23604 -11.1486 -0.52345 1.32356 2.51176 -27.9848 4.23374 -0.0 0.0 -0.0 6.15195 0.429296 -11.9105 -32.0504 24.6378 -66.5405 0.414985 11.6167 -0.0422141 -8.90985 0.397768 -1.06623 5.36022 28.7302 -22.3125 0.0 0.0 0.0 24.0658 14.4169 0.918146 -15.3051 0.322005 2.31969 34.9431 0.659431 -4.40902 36.786 -0.0 -0.0 -0.0 0.0 -0.0 56.7592 6.00637 -5.26103 -65.403 2.81078 -9.09264 10.0528 -30.4306 1.5467 -1.52728 0.0 0.0 0.0 0.0 0.0 
2851.90838929 691.463 -1922.63045193 -21.2569204292 39.0444663936 13.8116073921 6.91115 0.119839 -0.0166326 6.91114 0.120654 -0.00897322 6.91113 0.12097 0.00204445 6.91115 0.119775 -0.0170862 -11.6591 3.47579 -1.22451 -11.681 7.37742 -0.220862 -0.0 0.0 -0.0 7.73258 -11.9266 14.8691 -13.1849 -2.78068 58.7352 2.70611 -53.2685 1.35733 -9.42887 -0.426006 1.12632 2.47754 -25.8006 5.10271 -0.0 0.0 -0.0 5.88179 -0.635874 -11.3967 -33.6016 24.6929 -65.8278 0.436636 12.2051 -0.0466827 -11.3041 0.532553 -1.34125 5.33666 27.7649 -22.792 0.0 0.0 0.0 23.2004 15.3895 1.35129 -15.1869 0.321907 2.30157 35.1758 1.95373 -4.42412 35.8661 -0.0 -0.0 -0.0 0.0 -0.0 55.6628 7.34967 -4.83867 -61.2446 2.33587 -8.66112 15.7783 -28.6708 2.35307 -5.68857 0.0 0.0 0.0 0.0 0.0 
2850.5269447 691.463 -1920.84760541 -21.3497902653 39.3365745545 13.9585758126 6.91115 0.119839 -0.0166326 6.91114 0.120654 -0.00897322 6.91113 0.12097 0.00204445 6.91115 0.119775 -0.0170862 -11.6591 3.47579 -1.22451 -11.681 7.37742 -0.220862 -0.0 0.0 -0.0 7.73258 -11.9266 14.8691 -13.1849 -2.78068 58.7352 2.70611 -53.2685 1.35733 -9.42887 -0.426006 1.12632 2.47754 -25.8006 5.10271 -0.0 0.0 -0.0 5.88179 -0.635874 -11.3967 -33.6016 24.6929 -65.8278 0.436636 12.2051 -0.0466827 -11.3041 0.532553 -1.34125 5.33666 27.7649 -22.792 0.0 0.0 0.0 23.2004 15.3895 1.35129 -15.1869 0.321907 2.30157 35.1758 1.95373 -4.42412 35.8661 -0.0 -0.0 -0.0 0.0 -0.0 55.6628 7.34967 -4.83867 -61.2446 2.33587 -8.66112 15.7783 -28.6708 2.35307 -5.68857 0.0 0.0 0.0 0.0 0.0 
2831.07902056 692.217 -1924.48332053 -22.5663037983 39.5241181702 15.1521004626 7.16321 0.0325577 -0.235429 7.16324 0.0474726 -0.23288 7.163 0.0674687 -0.227892 7.16293 0.0306308 -0.235687 -11.7422 2.54489 -0.998735 -11.7539 5.46807 -0.257051 -0.0 0.0 -0.0 7.99273 -12.2395 15.4157 -12.075 -2.06485 58.7634 2.89813 -55.1302 1.51309 -7.01767 -0.29947 0.845103 2.42459 -22.5845 6.33476 -0.0 0.0 -0.0 5.64005 -1.35083 -10.9387 -35.6616 24.7281 -64.2029 0.497577 13.8467 -0.0604197 -14.6016 0.736806 -1.71042 5.26855 26.1108 -23.4045 0.0 0.0 0.0 22.3589 16.3889 1.82178 -14.9141 0.321539 2.25971 35.5067 3.67679 -4.44963 34.5997 -0.0 -0.0 -0.0 0.0 -0.0 53.9745 8.88993 -3.93451 -55.5539 1.73949 -8.0177 23.6677 -25.7017 3.35524 -11.6678 0.0 0.0 0.0 0.0 0.0 
2804.90474564 693.567 -1930.75198475 -22.0453761507 40.5267317548 15.2814109924 7.01392 -0.0927939 -0.539684 7.01408 -0.0582648 -0.544494 7.01441 -0.00945824 -0.547521 7.014 -0.095809 -0.539157 -12.1127 1.66774 -0.863 -12.1179 3.71732 -0.35746 -0.0 0.0 -0.0 8.40015 -12.5368 16.2839 -10.3628 -0.964268 58.3727 2.92001 -55.3319 1.53107 -4.34077 -0.17302 0.527061 2.29623 -20.0222 6.71555 -0.0 0.0 -0.0 5.58381 -2.19487 -10.8445 -37.8446 24.7761 -62.8459 0.477258 13.3018 -0.0556507 -17.6091 0.941415 -2.03652 5.49559 26.7672 -24.5405 0.0 0.0 0.0 20.7081 14.9754 2.68744 -14.6868 0.32108 2.22484 37.4778 4.08484 -4.63367 31.8025 -0.0 -0.0 -0.0 0.0 -0.0 54.9429 10.0831 -3.85106 -48.4616 1.09084 -7.13936 22.5673 -23.2062 3.17103 -14.3049 0.0 0.0 0.0 0.0 0.0 
2785.76751065 693.672 -1938.53022597 -22.6388546499 41.5832315281 15.9298799454 6.85129 -0.179679 -1.00639 6.85185 -0.115279 -1.01578 6.85312 -0.0213315 -1.02208 6.85171 -0.182473 -1.00588 -13.6012 0.516351 -0.281462 -13.6019 1.15769 -0.109327 -0.0 0.0 -0.0 9.10294 -12.7105 17.8061 -8.46512 -0.127624 58.5372 2.95004 -55.6054 1.55581 -1.22501 -0.0447699 0.150029 2.27671 -17.4327 7.80418 -0.0 0.0 -0.0 5.54585 -2.81625 -10.7814 -39.0456 25.1116 -61.3585 0.493158 13.7284 -0.0593665 -20.8767 1.18285 -2.37825 5.80591 27.6334 -26.0999 0.0 0.0 0.0 18.6748 11.6446 3.90464 -14.2761 0.3199 2.16184 40.304 4.52105 -4.88413 28.2793 -0.0 -0.0 -0.0 0.0 -0.0 56.3008 11.784 -3.77334 -38.7486 0.389079 -5.8223 19.5359 -21.1943 2.75494 -18.0602 0.0 0.0 0.0 0.0 0.0 
2788.50250888 693.672 -1942.4620498 -22.4441475335 41.0495740905 15.6349695652 6.85129 -0.179679 -1.00639 6.85185 -0.115279 -1.01578 6.85312 -0.0213315 -1.02208 6.85171 -0.182473 -1.00588 -13.6012 0.516351 -0.281462 -13.6019 1.15769 -0.109327 -0.0 0.0 -0.0 9.10294 -12.7105 17.8061 -8.46512 -0.127624 58.5372 2.95004 -55.6054 1.55581 -1.22501 -0.0447699 0.150029 2.27671 -17.4327 7.80418 -0.0 0.0 -0.0 5.54585 -2.81625 -10.7814 -39.0456 25.1116 -61.3585 0.493158 13.7284 -0.0593665 -20.8767 1.18285 -2.37825 5.80591 27.6334 -26.0999 0.0 0.0 0.0 18.6748 11.6446 3.90464 -14.2761 0.3199 2.16184 40.304 4.52105 -4.88413 28.2793 -0.0 -0.0 -0.0 0.0 -0.0 56.3008 11.784 -3.77334 -38.7486 0.389079 -5.8223 19.5359 -21.1943 2.75494 -18.0602 0.0 0.0 0.0 0.0 0.0 
2773.56051419 695.181 -1949.73955359 -22.5138606096 40.5829138711 15.8953962479 6.66926 -0.160113 -1.17123 6.67002 -0.0852655 -1.17904 6.67077 0.0273457 -1.18181 6.66885 -0.159629 -1.1713 -13.5478 0.622944 1.40797 -13.5423 0.31588 1.53103 -0.0 0.0 -0.0 9.14083 -13.8411 17.8454 -5.53109 0.846269 58.365 2.99468 -56.005 1.59272 2.1719 0.0714453 -0.268187 2.33051 -14.9692 9.31013 -0.0 0.0 -0.0 5.53389 -2.51397 -10.7539 -39.5484 25.985 -61.4124 0.48651 13.5503 -0.057799 -24.6571 1.48604 -2.75585 6.0377 27.5828 -27.7532 0.0 0.0 0.0 18.4419 9.03207 3.66985 -14.9688 0.321629 2.26811 40.1783 4.00995 -4.87384 26.7224 -0.0 -0.0 -0.0 0.0 -0.0 55.0086 13.6867 -3.72352 -30.1596 -0.037922 -4.57516 15.9664 -18.6007 2.26122 -18.6956 0.0 0.0 0.0 0.0 0.0 
2760.60739375 688.403 -1971.47863604 -23.4246631147 40.4391461602 16.572418226 6.6757 -0.134146 -1.32405 6.67667 -0.0496285 -1.32991 6.67654 0.0770582 -1.3286 6.6741 -0.133718 -1.3241 -13.4586 0.607045 2.91927 -13.4349 -0.654167 2.96564 -0.0 0.0 -0.0 9.2887 -16.6325 18.0352 -4.25391 1.85666 57.7722 3.0214 -56.2403 1.61491 7.15861 0.196663 -0.892687 2.62325 -13.871 11.814 -0.0 0.0 -0.0 5.57099 -1.78061 -10.8129 -39.3118 26.8232 -61.7085 0.453668 12.6661 -0.0503505 -27.7455 1.75188 -3.0491 6.32958 26.4658 -30.6443 0.0 0.0 0.0 17.9065 6.01114 3.46467 -15.9592 0.321869 2.42005 40.1059 3.44539 -4.86862 25.6948 -0.0 -0.0 -0.0 0.0 -0.0 52.9708 15.9199 -3.77467 -16.8833 -0.319724 -2.56183 6.59364 -18.1991 0.96264 -19.5926 0.0 0.0 0.0 0.0 0.0 
2763.18487156 688.403 -1974.99887601 -23.2618788327 39.9930506538 16.3203044155 6.6757 -0.134146 -1.32405 6.67667 -0.0496285 -1.32991 6.67654 0.0770582 -1.3286 6.6741 -0.133718 -1.3241 -13.4586 0.607045 2.91927 -13.4349 -0.654167 2.96564 -0.0 0.0 -0.0 9.2887 -16.6325 18.0352 -4.25391 1.85666 57.7722 3.0214 -56.2403 1.61491 7.15861 0.196663 -0.892687 2.62325 -13.871 11.814 -0.0 0.0 -0.0 5.57099 -1.78061 -10.8129 -39.3118 26.8232 -61.7085 0.453668 12.6661 -0.0503505 -27.7455 1.75188 -3.0491 6.32958 26.4658 -30.6443 0.0 0.0 0.0 17.9065 6.01114 3.46467 -15.9592 0.321869 2.42005 40.1059 3.44539 -4.86862 25.6948 -0.0 -0.0 -0.0 0.0 -0.0 52.9708 15.9199 -3.77467 -16.8833 -0.319724 -2.56183 6.59364 -18.1991 0.96264 -19.5926 0.0 0.0 0.0 0.0 0.0 
2753.67420413 689.728 -1988.23032924 -23.6342253943 39.8739553975 16.9919301851 6.69095 -0.304854 -1.44635 6.69209 -0.212211 -1.46282 6.69595 -0.0726992 -1.47634 6.69304 -0.304922 -1.44634 -11.3149 0.833312 2.86929 -11.2916 -0.304072 2.99521 -0.0 0.0 -0.0 9.52067 -18.2885 18.4504 -3.99742 3.47183 57.8014 3.00284 -56.0771 1.59949 10.9591 0.255348 -1.37452 2.9128 -12.8967 14.2622 -0.0 0.0 -0.0 5.62932 -0.839767 -10.9083 -39.9682 28.2838 -61.6012 0.416913 11.6693 -0.0426033 -30.5779 2.00932 -3.3052 6.8145 25.654 -34.8503 0.0 0.0 0.0 17.6263 4.34392 3.53491 -17.2297 0.318331 2.61495 38.9716 2.2363 -4.77355 24.9613 -0.0 -0.0 -0.0 0.0 -0.0 51.2737 17.1733 -2.93273 -8.06307 -0.247048 -1.21176 -1.96363 -18.0042 -0.292675 -18.3708 0.0 0.0 0.0 0.0 0.0 
2739.85224553 679.267 -2002.60540161 -24.4352668121 39.6776038869 18.0113773639 6.77759 -0.261639 -1.69845 6.77918 -0.153048 -1.71165 6.78158 0.00722507 -1.71847 6.77756 -0.264225 -1.69805 -11.708 0.333098 4.39733 -11.6553 -2.22348 4.32824 -0.0 0.0 -0.0 8.78065 -18.6884 16.7841 -3.89029 3.64485 58.4943 3.40412 -59.3174 1.93881 16.2002 0.283645 -2.04312 2.88649 -7.86925 16.3641 -0.0 0.0 -0.0 5.67932 -0.412675 -10.9973 -40.8621 29.3842 -60.9124 0.378985 10.633 -0.0352677 -33.1961 2.25833 -3.53043 7.0931 26.9452 -35.9251 0.0 0.0 0.0 16.6074 3.69734 2.47443 -17.7016 0.315916 2.68731 33.1269 1.277 -4.22601 28.1873 -0.0 -0.0 -0.0 0.0 -0.0 51.5914 17.3935 -3.21698 -3.28579 -0.121272 -0.489615 -1.99612 -15.7469 -0.295813 -16.9445 0.0 0.0 0.0 0.0 0.0 
